<svg xmlns="http://www.w3.org/2000/svg" width="200" height="200" fill="none"><g clip-path="url(#a)"><path fill="#431264" d="M0 0h200v200H0z"/><path fill="#8343a0" stroke="#fff" stroke-width="3" d="m122.23 76.636-22.072 101.009L77.415 76.633 99.822 19.13z"/><path fill="#8343a0" d="m52.765 97.112 45.258 48.338-2.012-58.988-34.625-43.204z" style="mix-blend-mode:multiply"/><path stroke="#fff" stroke-width="3" d="m52.765 97.112 45.258 48.338-2.012-58.988-34.625-43.204z"/><path fill="#8343a0" d="m36.774 124.868 60.071 21.727-25.823-51.097L21.478 72.59z" style="mix-blend-mode:multiply"/><path stroke="#fff" stroke-width="3" d="m36.774 124.868 60.071 21.727-25.823-51.097L21.478 72.59z"/><path fill="#8343a0" d="m147.241 97.112-45.258 48.338 2.012-58.988 34.625-43.204z" style="mix-blend-mode:multiply"/><path stroke="#fff" stroke-width="3" d="m147.241 97.112-45.258 48.338 2.012-58.988 34.625-43.204z"/><path fill="#8343a0" d="m163.229 124.866-59.68 21.464 25.435-50.833 49.541-22.907z" style="mix-blend-mode:multiply"/><path stroke="#fff" stroke-width="3" d="m163.229 124.866-59.68 21.464 25.435-50.833 49.541-22.907z"/></g><defs><clipPath id="a"><path fill="#fff" d="M0 0h200v200H0z"/></clipPath></defs></svg>